<svg width="80" height="80" viewBox="0 0 80 80" fill="none" xmlns="http://www.w3.org/2000/svg">
<circle cx="40" cy="40" r="40" fill="#AEFFBD"/>
<path d="M49.1 27.75C50.15 27.75 51.2 27.75 52.075 27.925C52.425 31.95 52.425 40 47.7 45.6C44.2 49.975 38.25 52.25 30.2 52.25H27.925C27.575 44.2 29.15 37.9 32.825 33.875C37.2 28.8 44.2 27.75 49.1 27.75ZM49.1 24.25C39.475 24.25 21.8 27.925 24.6 55.4C26.525 55.575 28.45 55.75 30.2 55.75C61.525 55.75 55.225 24.775 55.225 24.775C55.225 24.775 52.775 24.25 49.1 24.25ZM48.75 31.25C31.25 31.25 31.25 48.75 31.25 48.75C38.25 34.75 48.75 31.25 48.75 31.25Z" fill="#1CAD37"/>
</svg>
