<svg width="80" height="80" viewBox="0 0 80 80" fill="none" xmlns="http://www.w3.org/2000/svg">
<circle cx="40" cy="40" r="40" fill="#EEFFAE"/>
<path d="M50.5 51.375C51.9525 51.375 53.125 50.2025 53.125 48.75C53.125 47.2975 51.9525 46.125 50.5 46.125C49.0475 46.125 47.875 47.2975 47.875 48.75C47.875 50.2025 49.0475 51.375 50.5 51.375ZM53.125 35.625H48.75V40H56.555L53.125 35.625ZM29.5 51.375C30.9525 51.375 32.125 50.2025 32.125 48.75C32.125 47.2975 30.9525 46.125 29.5 46.125C28.0475 46.125 26.875 47.2975 26.875 48.75C26.875 50.2025 28.0475 51.375 29.5 51.375ZM54 33L59.25 40V48.75H55.75C55.75 51.655 53.405 54 50.5 54C47.595 54 45.25 51.655 45.25 48.75H34.75C34.75 51.655 32.405 54 29.5 54C26.595 54 24.25 51.655 24.25 48.75H20.75V29.5C20.75 27.5575 22.3075 26 24.25 26H48.75V33H54ZM24.25 29.5V45.25H25.58C26.5425 44.1825 27.9425 43.5 29.5 43.5C31.0575 43.5 32.4575 44.1825 33.42 45.25H45.25V29.5H24.25Z" fill="#8AAC09"/>
</svg>
