<svg width="80" height="80" viewBox="0 0 80 80" fill="none" xmlns="http://www.w3.org/2000/svg">
<circle cx="40" cy="40" r="40" fill="#AEF7FF"/>
<path d="M38.6666 42.6666C40.0811 42.6666 41.4376 43.2285 42.4378 44.2287C43.438 45.2289 43.9999 46.5855 43.9999 48C43.9999 50.5733 42.4213 52.6133 40.2373 53.9466C38.0533 55.2746 35.1333 56 31.9999 56C28.8666 56 25.9466 55.2746 23.7626 53.9466C21.5759 52.6133 19.9999 50.5733 19.9999 48C19.9999 46.5855 20.5618 45.2289 21.562 44.2287C22.5622 43.2285 23.9188 42.6666 25.3333 42.6666H38.6666ZM25.3333 45.3333C24.626 45.3333 23.9478 45.6143 23.4477 46.1144C22.9476 46.6145 22.6666 47.2927 22.6666 48C22.6666 49.3546 23.4773 50.6453 25.1519 51.6666C26.8266 52.688 29.2426 53.3333 31.9999 53.3333C34.7573 53.3333 37.1733 52.688 38.8479 51.6666C40.5226 50.6453 41.3333 49.3546 41.3333 48C41.3333 47.2927 41.0523 46.6145 40.5522 46.1144C40.0521 45.6143 39.3738 45.3333 38.6666 45.3333H25.3333ZM56.4053 42.688C57.3907 42.7884 58.3039 43.2508 58.968 43.9858C59.632 44.7208 59.9998 45.6761 59.9999 46.6666C59.9999 48.7226 58.7466 50.424 57.0639 51.5466C55.3679 52.6773 53.1013 53.3333 50.6666 53.3333C48.8026 53.3333 47.0399 52.944 45.5546 52.2586C45.9813 51.4933 46.3013 50.656 46.4879 49.744C47.6159 50.304 49.0586 50.6666 50.6666 50.6666C52.6479 50.6666 54.3839 50.128 55.5839 49.328C56.7919 48.5226 57.3333 47.5546 57.3333 46.6666C57.3333 46.3593 57.2272 46.0613 57.0328 45.8232C56.8384 45.5851 56.5678 45.4215 56.2666 45.36L55.9999 45.3333H46.2026C45.8623 44.3734 45.3419 43.4873 44.6693 42.7226C44.8878 42.6857 45.109 42.667 45.3306 42.6666H55.9973L56.4053 42.688ZM51.2853 28.0213C52.7641 28.1737 54.134 28.8691 55.1299 29.9729C56.1259 31.0767 56.6772 32.5106 56.6773 33.9973L56.6453 34.6106C56.4923 36.0886 55.797 37.4574 54.6938 38.4527C53.5907 39.4481 52.1578 39.9993 50.6719 40L50.0586 39.968C48.6848 39.8278 47.4014 39.2181 46.425 38.2416C45.4485 37.2652 44.8388 35.9818 44.6986 34.608L44.6666 33.9946C44.6659 33.2058 44.8208 32.4246 45.1223 31.6957C45.4239 30.9668 45.8662 30.3045 46.424 29.7467C46.9817 29.1889 47.644 28.7466 48.373 28.445C49.1019 28.1435 49.8831 27.9886 50.6719 27.9893L51.2853 28.0213ZM31.9999 25.3333C33.9449 25.3333 35.8101 26.1059 37.1854 27.4812C38.5607 28.8565 39.3333 30.7217 39.3333 32.6666C39.3333 34.6116 38.5607 36.4768 37.1854 37.8521C35.8101 39.2274 33.9449 40 31.9999 40C30.055 40 28.1898 39.2274 26.8145 37.8521C25.4392 36.4768 24.6666 34.6116 24.6666 32.6666C24.6666 30.7217 25.4392 28.8565 26.8145 27.4812C28.1898 26.1059 30.055 25.3333 31.9999 25.3333ZM50.6719 30.6586C49.7865 30.6586 48.9373 31.0104 48.3111 31.6365C47.685 32.2626 47.3333 33.1118 47.3333 33.9973C47.3333 34.8828 47.685 35.732 48.3111 36.3581C48.9373 36.9842 49.7865 37.336 50.6719 37.336C51.5574 37.336 52.4066 36.9842 53.0327 36.3581C53.6589 35.732 54.0106 34.8828 54.0106 33.9973C54.0106 33.1118 53.6589 32.2626 53.0327 31.6365C52.4066 31.0104 51.5574 30.6586 50.6719 30.6586ZM31.9999 28C30.7623 28 29.5753 28.4916 28.7001 29.3668C27.8249 30.242 27.3333 31.429 27.3333 32.6666C27.3333 33.9043 27.8249 35.0913 28.7001 35.9665C29.5753 36.8416 30.7623 37.3333 31.9999 37.3333C33.2376 37.3333 34.4246 36.8416 35.2998 35.9665C36.1749 35.0913 36.6666 33.9043 36.6666 32.6666C36.6666 31.429 36.1749 30.242 35.2998 29.3668C34.4246 28.4916 33.2376 28 31.9999 28Z" fill="#247A9E"/>
</svg>
