<svg width="140" height="50" viewBox="0 0 140 50" fill="none" xmlns="http://www.w3.org/2000/svg">
<path d="M17.2404 1.27187C11.8893 5.3022 7.86715 9.26647 4.90811 13.462C1.27575 18.599 0 22.2329 0 27.2543C0.0177188 30.9048 0.779628 33.6302 2.53379 36.273C3.59692 37.9083 5.67002 40.1877 5.9358 40.0391C6.04211 39.973 6.07755 39.9895 6.0244 40.0886C5.88265 40.2868 8.06206 42.0047 9.70991 42.9792C11.5527 44.0859 17.1164 46.5801 17.7542 46.5801C17.896 46.5801 17.9492 45.3908 17.9492 42.5333V38.4699L14.1928 35.0507C12.1374 33.1677 10.3832 31.6481 10.2946 31.6811C10.206 31.6976 10.1706 31.6481 10.2238 31.582C10.2769 31.4994 10.1706 31.3012 9.97569 31.136C9.47956 30.7065 9.26694 29.4842 9.26694 26.924V24.6445L8.46959 24.1655C6.8749 23.224 5.9358 21.2914 6.39649 19.8544C7.22927 17.2776 9.95797 16.0057 12.3677 17.0794C14.5294 18.0209 15.504 20.2012 14.6712 22.1008C14.3168 22.8606 13.2891 23.8847 12.4209 24.2976L11.7476 24.6115V27.1387V29.6659L12.9525 30.7726C13.608 31.3673 14.2282 31.8793 14.3168 31.8793C14.4231 31.8793 14.494 31.9619 14.494 32.0445C14.494 32.1436 15.2736 32.9199 16.2304 33.7623L17.9492 35.2985L18.0023 30.7396C18.02 28.2289 18.0377 21.9026 18.0377 16.683C18.0377 7.51559 18.0555 7.16871 18.3921 6.52452C18.8705 5.64908 19.4553 5.61604 19.9691 6.44193C20.3412 7.02005 20.3412 7.16871 20.3944 28.5427C20.4298 45.4734 20.4829 50.0654 20.6601 49.9993C20.7664 49.9663 21.1385 49.6194 21.4398 49.2395C22.5206 47.9346 22.556 47.6373 22.556 39.4444V32.028L23.7609 30.8552C24.4165 30.211 25.3202 29.319 25.7632 28.8731L26.5782 28.0472L26.5605 25.6851L26.5428 23.3231L25.6568 22.7615C22.8927 20.9941 22.999 17.4758 25.8517 15.9231C26.5428 15.5432 26.8972 15.4606 27.854 15.4606C29.6259 15.4606 30.9725 16.27 31.699 17.7566C32.7089 19.7553 31.7521 22.1008 29.555 23.0753L29.0234 23.3066L29.0766 25.074C29.112 26.0485 29.0943 27.3204 29.0234 27.8985C28.9171 28.8566 28.8285 29.0382 28.1198 29.732C27.6945 30.1615 27.411 30.5744 27.4819 30.6405C27.5527 30.7231 27.5173 30.7231 27.411 30.6735C27.3047 30.6074 26.6845 31.0699 26.0289 31.6976L24.8595 32.8373V38.7672C24.8595 42.0377 24.9126 44.7466 24.9658 44.8127C25.1253 44.9614 27.5527 43.7886 29.3778 42.6654C32.6912 40.6337 35.7743 37.3137 37.0678 34.4065C38.06 32.1436 38.3612 30.7065 38.4498 27.7499C38.5561 24.661 38.3258 22.9432 37.4398 20.3169C36.2704 16.8151 33.2405 12.3223 29.0588 7.96157C27.287 6.11158 25.2493 4.34417 24.9835 4.42676C24.8949 4.44328 24.8772 4.41024 24.9304 4.32766C25.0898 4.09641 19.6147 0 19.1363 0C19.0123 0 18.1618 0.561604 17.2404 1.27187Z" fill="#2B8330"/>
<path d="M48.5496 12.5039C48.4787 12.5535 48.4255 17.7236 48.4255 23.9838V35.348H56.2218H64.0181V33.3659V31.3838H58.791H53.564V28.6583V25.9329H57.8165H62.069V23.9508V21.9686L57.8697 21.9356L53.6526 21.886L53.5994 19.2762L53.5463 16.6829H58.7024H63.8409V14.5356V12.3883H56.2573C52.0756 12.3883 48.6027 12.4379 48.5496 12.5039Z" fill="#033F23"/>
<path d="M26.6137 18.153C26.2062 18.533 26.0999 18.7807 26.0999 19.3258C26.0999 19.7057 26.1884 20.1517 26.277 20.3334C26.5074 20.6968 27.3579 21.1428 27.8717 21.1428C28.5273 21.1428 29.307 20.6472 29.5727 20.0691C30.3524 18.3347 28.0312 16.8316 26.6137 18.153Z" fill="#033F23"/>
<path d="M72.5764 18.2521C68.4125 19.0945 65.8078 22.4642 65.7901 27.0066C65.7724 32.7713 70.8399 36.7025 76.8289 35.6123C80.0006 35.0342 82.6052 32.9364 83.4026 30.2936C83.5266 29.9137 83.4735 29.8972 80.1423 29.6329L78.8134 29.5338L78.4059 30.1945C77.1301 32.3088 74.0648 32.7052 72.2397 30.9873C71.212 30.0293 70.7514 28.7905 70.7514 26.9405C70.7514 23.9838 72.0803 22.0677 74.4014 21.7209C75.943 21.4896 77.6794 22.3485 78.459 23.6865L78.8134 24.2976L81.0991 24.2646L83.3671 24.2316L83.2785 23.67C82.9773 21.9851 81.294 19.9369 79.4336 19.0119C77.5377 18.0704 74.9153 17.7731 72.5764 18.2521Z" fill="#033F23"/>
<path d="M92.3683 18.1861C87.6905 18.8302 84.448 22.8606 84.82 27.5682C85.139 31.582 87.6196 34.5056 91.5355 35.4636C93.1302 35.8601 95.8589 35.8105 97.3472 35.3645C101.334 34.1753 103.708 30.723 103.478 26.4284C103.177 20.7793 98.5344 17.3271 92.3683 18.1861ZM95.6285 22.0017C96.0715 22.1338 96.6739 22.5137 97.1701 22.9597C98.2686 23.9838 98.6407 25.0244 98.623 27.0561C98.623 28.4271 98.5521 28.6914 98.0383 29.6659C97.3472 30.9708 96.4967 31.615 95.0615 31.8958C92.1379 32.4574 89.9408 30.6074 89.7459 27.4195C89.4978 23.5378 92.2088 21.0602 95.6285 22.0017Z" fill="#033F23"/>
<path d="M109.786 18.4173C106.809 19.1936 105.48 20.7628 105.48 23.4387C105.498 25.2557 106.437 26.6927 108.173 27.5186C108.634 27.7333 110.282 28.2123 111.859 28.5757C114.924 29.286 115.296 29.4181 115.58 29.8972C116.306 31.1525 114.977 32.54 113.064 32.54C111.309 32.54 110.14 31.8793 109.626 30.6239L109.325 29.8641L108.333 29.9632C107.783 30.0128 106.791 30.1119 106.136 30.1614L104.931 30.2605L105.037 30.7891C105.25 31.6811 105.941 32.9695 106.632 33.6632C107.872 34.9516 110.158 35.6784 112.922 35.6784C115.527 35.6784 117.334 35.1333 118.787 33.911C119.761 33.0851 120.222 32.1766 120.328 30.8717C120.541 27.9811 118.999 26.3954 115.048 25.4539C110.884 24.4628 110.087 24.0994 110.087 23.1744C110.087 22.1173 111.15 21.4731 112.869 21.4731C114.251 21.4731 115.19 21.9686 115.668 22.9101L116.005 23.6204H118.202H120.399L120.293 22.9927C119.921 21.0601 118.415 19.4084 116.342 18.6486C115.013 18.1695 111.239 18.0374 109.786 18.4173Z" fill="#033F23"/>
<path d="M121.002 19.111C121.144 19.4579 122.862 23.3231 124.794 27.7003L128.32 35.6784L128.072 36.4712C127.753 37.4293 127.221 38.1065 126.583 38.3543C126.335 38.4534 125.485 38.5855 124.705 38.6351L123.287 38.7342V40.5511V42.3681L125.166 42.3516C126.778 42.335 127.168 42.2855 128.054 41.9056C128.621 41.6578 129.383 41.2283 129.773 40.9475C130.659 40.3034 131.917 38.6516 132.572 37.2971C133.175 36.0418 135.832 29.4512 138.189 23.3726C139.128 20.9115 139.943 18.8137 139.996 18.6981C140.049 18.5329 139.536 18.4999 137.533 18.5329L135.017 18.5825L133.051 24.3307C131.97 27.4856 131.013 30.0458 130.924 30.0128C130.818 29.9797 127.239 21.1097 126.512 19.0285L126.335 18.4999H123.518H120.718L121.002 19.111Z" fill="#033F23"/>
<path d="M9.85164 19.0615C9.26692 19.3093 8.73535 20.0526 8.73535 20.6472C8.73535 21.1263 9.19604 21.9026 9.65673 22.1999C10.5958 22.8111 12.1196 22.2825 12.4209 21.2419C12.6512 20.4821 12.5095 19.9205 11.9425 19.4249C11.34 18.8964 10.5781 18.7642 9.85164 19.0615Z" fill="#033F23"/>
</svg>
